{"glyphs":{":":{"x_min":0,"x_max":240,"ha":240,"o":"m 188 310 q 188 282 168 262 q 148 242 120 242 q 92 242 72 262 q 52 282 52 310 q 52 338 72 358 q 92 378 120 378 q 148 378 168 358 q 188 338 188 310 z m 188 59 q 188 30 168 10 q 148 -10 120 -10 q 92 -10 72 10 q 52 30 52 59 q 52 86 72 106 q 92 126 120 126 q 148 126 168 106 q 188 86 188 59 z"},"$":{"x_min":0,"x_max":531,"ha":531,"o":"m 243 601 l 289 601 l 289 535 q 373 530 414 493 q 456 457 456 419 q 456 395 440 377 q 424 360 398 360 q 374 360 356 376 q 339 392 339 416 q 339 432 354 457 q 363 471 363 475 q 363 496 289 505 l 289 327 q 377 298 406 283 q 436 269 459 233 q 483 197 483 151 q 483 75 432 28 q 381 -19 289 -30 l 289 -152 l 243 -152 l 243 -30 q 175 -30 113 13 q 52 56 52 117 q 52 147 70 165 q 88 182 111 182 q 139 182 157 164 q 174 145 174 122 q 174 95 151 76 q 137 64 137 58 q 137 43 167 24 q 196 6 243 1 l 243 215 q 137 246 102 288 q 66 329 66 381 q 66 445 117 490 q 168 535 243 535 z m 243 503 q 200 501 171 477 q 141 453 141 423 q 141 371 243 339 z m 289 1 q 354 11 380 42 q 405 73 405 102 q 405 124 387 150 q 369 175 289 200 z"},"?":{"x_min":0,"x_max":469,"ha":469,"o":"m 158 311 l 145 177 l 106 177 l 103 381 q 156 335 198 335 q 239 335 266 378 q 292 421 292 486 q 292 551 264 587 q 235 624 202 624 q 170 624 170 604 q 170 600 171 595 q 176 581 176 573 q 176 549 158 533 q 140 516 113 516 q 86 516 70 532 q 54 548 54 574 q 54 611 92 634 q 130 656 188 656 q 290 656 354 594 q 419 531 419 452 q 419 382 371 334 q 322 285 257 285 q 199 285 158 311 z m 204 59 q 204 30 184 10 q 164 -10 135 -10 q 107 -10 87 10 q 67 30 67 59 q 67 86 87 106 q 107 126 135 126 q 164 126 184 106 q 204 86 204 59 z"},"<":{"x_min":0,"x_max":667,"ha":667,"o":"m 68 294 l 599 517 l 599 447 l 154 265 l 599 82 l 599 13 l 68 236 z"},"'":{"x_min":0,"x_max":281,"ha":281,"o":"m 153 353 l 129 353 l 78 539 q 68 574 68 602 q 68 634 89 656 q 109 677 140 677 q 174 677 193 656 q 212 634 212 604 q 212 583 201 540 z"},"=":{"x_min":0,"x_max":667,"ha":667,"o":"m 68 408 l 599 408 l 599 344 l 68 344 z m 68 184 l 599 184 l 599 120 l 68 120 z"},"a":{"x_min":0,"x_max":479,"ha":479,"o":"m 267 47 q 237 18 206 4 q 175 -11 144 -11 q 94 -11 67 19 q 40 49 40 92 q 40 125 56 152 q 73 178 97 192 q 121 207 177 227 q 224 243 240 253 q 255 262 266 281 q 277 299 277 328 q 277 360 261 380 q 245 399 216 399 q 192 399 182 387 q 171 374 166 346 q 155 291 106 291 q 86 291 72 302 q 58 314 58 336 q 58 383 109 406 q 160 429 230 429 q 292 429 330 411 q 368 392 379 368 q 390 343 390 292 l 389 176 q 389 84 395 59 q 401 33 421 33 q 424 33 429 33 q 438 34 442 34 q 462 34 462 23 q 462 16 454 10 q 445 5 404 -2 q 362 -10 328 -10 q 294 -10 282 3 q 270 16 267 47 z m 273 242 q 262 228 217 205 q 177 183 163 167 q 149 149 149 117 q 149 83 164 65 q 178 47 199 47 q 228 47 252 73 q 276 100 276 166 q 276 186 273 242 z"},"L":{"x_min":0,"x_max":625,"ha":625,"o":"m 578 -6 q 456 0 198 0 q 108 0 52 -5 q 38 -6 32 -6 q 13 -6 13 9 q 13 16 18 18 q 23 21 42 24 q 72 28 88 42 q 104 55 111 82 q 118 108 119 218 q 120 327 120 477 q 120 537 111 564 q 102 591 86 604 q 69 616 40 618 q 19 619 19 633 q 19 648 42 648 l 205 644 q 242 644 310 647 q 334 648 343 648 q 363 648 363 634 q 363 626 357 623 q 350 620 324 616 q 291 611 278 599 q 264 587 260 557 q 255 526 255 421 l 255 125 q 255 56 267 43 q 279 30 312 30 q 392 30 431 43 q 470 55 505 88 q 541 121 581 198 q 589 213 598 213 q 611 213 611 199 q 611 167 578 -6 z"},"3":{"x_min":0,"x_max":531,"ha":531,"o":"m 326 301 q 399 301 433 262 q 466 224 466 182 q 466 132 431 87 q 396 42 341 16 q 287 -10 221 -10 q 149 -10 100 21 q 50 52 50 99 q 50 128 68 146 q 86 164 112 164 q 134 164 152 147 q 169 131 169 108 q 169 95 161 77 q 155 63 155 57 q 155 42 173 31 q 190 21 211 21 q 265 21 304 109 q 344 196 344 233 q 344 253 332 265 q 320 277 306 277 q 288 277 244 243 q 212 219 206 219 q 191 219 191 232 q 191 241 203 250 q 288 317 312 357 q 336 397 336 432 q 336 465 320 484 q 304 503 279 503 q 241 503 211 469 q 180 436 180 391 q 180 375 188 365 q 196 355 206 355 q 228 355 250 393 q 254 402 263 402 q 276 402 276 388 q 276 374 244 337 q 212 299 167 299 q 137 299 115 321 q 94 343 94 375 q 94 443 163 490 q 231 538 315 538 q 384 538 418 508 q 452 479 452 441 q 452 418 437 395 q 422 371 405 357 q 389 343 326 301 z"},";":{"x_min":0,"x_max":271,"ha":271,"o":"m 204 310 q 204 282 184 262 q 164 242 135 242 q 107 242 87 262 q 67 282 67 310 q 67 338 87 358 q 107 378 135 378 q 164 378 184 358 q 204 338 204 310 z m 219 36 q 219 -3 190 -49 q 161 -94 116 -123 q 71 -151 55 -151 q 44 -151 44 -138 q 44 -131 55 -125 q 98 -95 116 -63 q 135 -32 135 -15 q 135 -1 113 4 q 54 19 54 63 q 54 91 77 109 q 100 126 127 126 q 169 126 194 99 q 219 71 219 36 z"},"J":{"x_min":0,"x_max":469,"ha":469,"o":"m 278 641 l 420 645 q 444 645 444 631 q 444 618 421 617 q 389 615 374 597 q 359 579 356 493 q 354 408 354 332 l 354 231 q 354 134 331 88 q 308 43 258 13 q 207 -16 145 -16 q 77 -16 37 17 q -4 49 -4 95 q -4 125 17 148 q 39 171 74 171 q 106 171 125 153 q 143 135 143 111 q 143 98 129 71 q 118 52 118 43 q 118 31 126 25 q 134 19 149 19 q 188 19 204 56 q 221 94 221 240 q 221 543 212 580 q 204 617 139 618 q 119 619 119 632 q 119 646 141 646 q 146 646 176 645 q 239 641 278 641 z"},"V":{"x_min":0,"x_max":698,"ha":698,"o":"m 364 -14 l 326 -14 l 236 220 q 202 309 150 437 q 99 565 84 586 q 69 606 57 613 q 45 620 21 622 q 5 622 5 635 q 5 649 24 649 l 156 645 q 225 645 292 649 q 311 650 314 650 q 338 650 338 634 q 338 624 317 621 q 261 614 261 571 q 261 496 390 167 q 433 274 472 384 l 520 519 q 528 543 528 565 q 528 588 512 604 q 496 621 476 621 q 454 622 454 634 q 454 650 472 650 q 485 650 506 648 q 547 645 581 645 q 615 645 642 648 q 662 651 675 651 q 692 651 692 636 q 692 623 675 621 q 649 617 631 603 q 612 589 594 558 q 577 527 535 419 l 448 195 q 386 31 364 -14 z"},"\"":{"x_min":0,"x_max":552,"ha":552,"o":"m 406 352 l 382 352 l 333 540 q 321 582 321 604 q 321 632 342 655 q 363 677 395 677 q 428 677 447 655 q 466 632 466 605 q 466 590 454 540 z m 171 352 l 147 352 l 96 540 q 86 576 86 603 q 86 634 107 656 q 128 677 159 677 q 192 677 211 656 q 230 634 230 605 q 230 584 219 539 z"},"7":{"x_min":0,"x_max":531,"ha":531,"o":"m 400 422 l 229 422 q 161 422 142 414 q 123 406 100 374 q 82 349 75 349 q 61 349 61 364 q 61 379 78 455 q 95 531 104 546 q 113 562 121 562 q 130 562 138 547 q 143 538 155 533 q 167 528 226 528 q 285 527 292 527 l 486 527 q 479 505 464 476 q 401 356 380 277 q 359 199 354 94 q 351 25 336 -1 q 320 -27 282 -27 q 254 -27 235 -10 q 216 8 216 35 q 216 61 231 105 q 247 149 298 241 z"},"S":{"x_min":0,"x_max":542,"ha":542,"o":"m 402 622 q 408 628 415 642 q 422 657 431 657 q 444 657 447 636 l 464 502 l 466 486 q 466 473 453 473 q 443 473 439 477 q 435 482 422 507 q 401 551 353 585 q 305 620 256 620 q 208 620 177 593 q 146 566 146 525 q 146 492 175 466 q 204 439 288 416 q 418 379 465 324 q 511 270 511 203 q 511 134 477 88 q 443 42 396 15 q 350 -12 276 -12 q 235 -12 190 0 q 146 12 99 36 q 89 25 82 7 q 74 -13 62 -13 q 50 -13 48 13 l 34 190 q 33 202 33 205 q 33 219 47 219 q 58 219 68 195 q 98 122 149 73 q 200 24 268 24 q 325 24 361 58 q 396 92 396 136 q 396 179 363 209 q 331 239 246 266 q 163 293 123 317 q 83 342 58 385 q 34 427 34 471 q 34 548 94 602 q 153 655 255 655 q 310 655 402 622 z"},"}":{"x_min":0,"x_max":396,"ha":396,"o":"m 44 -226 l 44 -204 q 94 -196 117 -169 q 140 -142 140 -112 q 140 -80 128 -33 q 116 18 116 52 q 116 101 154 146 q 191 192 275 212 q 185 239 150 284 q 115 330 115 375 q 115 401 127 451 q 139 500 139 534 q 139 612 44 630 l 44 653 q 88 653 115 647 q 143 641 176 618 q 209 596 228 563 q 246 530 246 497 q 246 465 231 406 q 220 363 220 331 q 220 244 315 228 l 315 198 q 264 191 242 159 q 220 128 220 92 q 220 60 230 19 q 245 -40 245 -68 q 245 -112 214 -153 q 183 -193 141 -208 q 100 -224 44 -226 z"},"Z":{"x_min":0,"x_max":677,"ha":677,"o":"m 425 602 q 321 609 276 609 q 149 609 87 496 q 72 468 59 468 q 44 468 44 483 q 44 488 47 497 q 49 501 63 557 q 67 573 91 646 l 348 641 q 564 641 602 650 l 604 651 q 613 651 613 642 q 613 632 455 399 q 354 251 217 32 l 322 32 q 410 32 453 42 q 496 52 543 90 q 591 127 613 167 q 622 183 634 183 q 647 183 647 169 q 647 162 643 150 q 620 83 600 0 l 54 0 q 38 0 38 6 q 38 14 84 89 q 130 164 425 602 z"},"x":{"x_min":0,"x_max":542,"ha":542,"o":"m 287 265 l 311 294 q 353 344 361 355 q 368 366 368 375 q 368 389 334 393 q 317 395 317 407 q 317 420 341 420 q 348 420 364 418 q 385 416 408 416 q 430 416 450 418 q 462 420 466 420 q 484 420 484 408 q 484 396 460 393 q 442 392 430 385 q 418 378 396 353 l 344 294 l 303 245 l 418 95 q 445 61 465 46 q 485 32 510 26 q 532 22 532 11 q 532 -3 509 -3 q 498 -3 468 -1 q 441 1 389 1 q 340 1 303 -2 q 287 -4 280 -4 q 261 -4 261 10 q 261 21 284 25 q 314 30 314 44 q 314 56 293 83 q 275 107 271 113 q 267 118 263 124 l 234 160 l 181 98 q 150 62 150 48 q 150 37 159 32 q 168 27 198 23 q 215 21 215 10 q 215 -4 192 -4 q 186 -4 176 -3 q 151 0 115 0 q 91 0 45 -4 q 41 -4 38 -4 q 18 -4 18 10 q 18 22 43 25 q 69 28 90 41 q 111 54 134 84 q 137 88 141 93 l 217 183 l 100 333 q 75 365 62 376 q 50 387 27 393 q 11 397 11 406 q 11 420 30 420 q 38 420 62 418 q 94 416 112 416 q 180 416 221 419 q 231 420 237 420 q 255 420 255 406 q 255 396 229 391 q 209 387 209 378 q 209 365 234 335 q 239 329 243 323 z"},")":{"x_min":0,"x_max":333,"ha":333,"o":"m 199 201 q 199 348 144 472 q 89 596 49 643 q 38 657 38 662 q 38 669 50 669 q 85 669 95 663 q 104 658 141 615 q 178 573 213 501 q 249 429 267 358 q 286 287 286 201 q 286 115 267 42 q 248 -30 212 -101 q 177 -171 141 -213 q 104 -255 95 -261 q 85 -267 48 -267 q 38 -267 38 -259 q 38 -254 49 -241 q 91 -192 145 -68 q 199 56 199 201 z"},"&":{"x_min":0,"x_max":740,"ha":740,"o":"m 215 365 q 137 445 137 516 q 137 571 179 612 q 221 653 282 653 q 339 653 374 621 q 409 589 409 550 q 409 489 329 420 q 421 347 501 206 q 543 273 543 335 q 543 387 493 391 q 472 393 472 406 q 472 419 500 419 l 598 417 q 626 417 665 420 q 683 421 689 421 q 706 421 706 408 q 706 398 687 393 q 654 385 637 372 q 620 358 611 343 q 602 328 567 256 q 544 210 520 176 q 582 49 635 49 q 656 49 681 65 q 695 75 700 75 q 714 75 714 61 q 714 47 662 18 q 610 -11 561 -11 q 522 -11 494 13 q 465 37 437 83 q 322 -12 223 -12 q 146 -12 98 32 q 49 76 49 149 q 49 191 72 237 q 96 284 215 365 z m 303 444 q 351 491 351 542 q 351 581 328 601 q 306 622 279 622 q 256 622 239 604 q 222 586 222 559 q 222 508 303 444 z m 237 342 q 166 284 166 215 q 166 161 203 111 q 241 61 301 61 q 355 61 421 113 q 349 247 237 342 z"},"_":{"x_min":0,"x_max":500,"ha":500,"o":"m -6 -75 l 506 -75 l 506 -125 l -6 -125 z"},"v":{"x_min":0,"x_max":500,"ha":500,"o":"m 298 130 q 330 198 357 273 q 384 348 384 366 q 384 385 362 391 q 340 397 340 407 q 340 419 358 419 q 367 419 394 417 q 419 415 429 415 q 450 415 469 418 q 479 419 485 419 q 500 419 500 406 q 500 396 479 392 q 433 385 402 306 q 367 217 335 141 q 303 64 286 31 q 269 -3 265 -6 q 262 -9 256 -9 q 250 -9 244 0 q 238 10 194 99 l 81 323 q 57 372 44 381 q 31 391 22 393 q 3 397 3 407 q 3 420 21 420 q 29 420 46 419 q 85 415 123 415 q 138 415 157 417 q 192 420 199 420 q 231 420 231 409 q 231 395 213 393 q 188 391 188 369 q 188 356 229 269 q 270 181 298 130 z"},"O":{"x_min":0,"x_max":771,"ha":771,"o":"m 393 653 q 492 653 566 614 q 640 574 684 499 q 729 424 729 336 q 729 199 627 94 q 525 -12 374 -12 q 237 -12 139 75 q 42 163 42 312 q 42 452 143 553 q 244 653 393 653 z m 563 321 q 563 469 513 544 q 463 619 386 619 q 309 619 259 544 q 208 469 208 321 q 208 180 257 102 q 305 23 386 23 q 458 23 510 94 q 563 165 563 321 z"},"(":{"x_min":0,"x_max":333,"ha":333,"o":"m 135 201 q 135 54 190 -70 q 245 -193 285 -241 q 296 -254 296 -259 q 296 -267 286 -267 q 249 -267 239 -261 q 229 -256 193 -213 q 156 -170 121 -100 q 86 -30 67 42 q 47 115 47 201 q 47 287 66 359 q 85 431 122 503 q 158 575 193 616 q 229 658 239 663 q 248 669 283 669 q 296 669 296 662 q 296 657 285 643 q 243 594 189 470 q 135 347 135 201 z"},"C":{"x_min":0,"x_max":667,"ha":667,"o":"m 555 600 q 565 613 577 628 q 590 647 599 647 q 608 647 611 643 q 614 638 616 612 l 626 460 l 627 440 q 627 421 611 421 q 601 421 595 437 q 575 489 523 552 q 471 615 392 615 q 333 615 293 581 q 253 547 231 488 q 209 429 209 347 q 209 206 271 122 q 333 39 425 39 q 525 39 609 160 q 619 175 628 175 q 644 175 644 159 q 644 127 567 57 q 490 -14 375 -14 q 221 -14 132 81 q 43 176 43 314 q 43 452 133 553 q 223 654 359 654 q 456 654 555 600 z"},"W":{"x_min":0,"x_max":1062,"ha":1062,"o":"m 391 -14 l 355 -14 l 233 259 q 160 421 121 498 q 81 575 62 592 q 42 608 18 615 q 3 619 3 629 q 3 637 9 640 q 14 643 39 643 l 162 640 q 184 640 222 642 q 276 645 305 645 q 323 645 323 631 q 323 618 302 616 q 281 614 264 601 q 248 588 248 569 q 248 554 257 531 q 266 507 333 359 l 416 179 l 521 463 q 511 484 489 538 q 467 592 454 602 q 440 612 411 617 q 395 619 395 631 q 395 639 401 641 q 407 644 444 644 l 561 641 l 656 644 q 706 644 712 642 q 718 641 718 630 q 718 617 700 617 q 668 617 653 602 q 638 586 638 565 q 638 505 775 189 q 803 259 848 383 q 893 507 898 526 q 904 546 904 563 q 904 591 887 604 q 870 616 853 617 q 829 618 829 630 q 829 644 851 644 l 933 641 q 981 641 1017 644 q 1037 646 1044 646 q 1063 646 1063 632 q 1063 620 1043 618 q 1023 616 1008 606 q 993 597 971 566 q 950 534 910 429 l 828 209 l 745 -14 l 710 -14 q 699 9 628 200 q 591 298 544 407 l 463 187 z"},"A":{"x_min":0,"x_max":698,"ha":698,"o":"m 322 662 l 356 662 q 420 522 538 223 q 592 85 613 56 q 633 27 678 21 q 692 19 692 8 q 692 -7 673 -7 q 663 -7 620 -4 q 569 0 535 0 q 501 0 447 -3 q 406 -6 394 -6 q 371 -6 371 8 q 371 19 387 20 q 447 25 447 67 q 447 86 429 139 q 412 191 392 234 q 360 235 342 235 q 244 235 189 234 q 147 119 147 81 q 147 54 168 39 q 189 24 213 22 q 232 20 232 7 q 232 -6 212 -6 q 204 -6 171 -4 q 128 0 108 0 q 70 0 35 -5 q 26 -7 21 -7 q 2 -7 2 8 q 2 19 14 22 q 43 30 60 42 q 77 55 96 89 q 115 124 142 200 q 203 371 322 662 z m 288 492 l 204 274 l 376 276 q 362 314 334 381 q 303 453 288 492 z"},"f":{"x_min":0,"x_max":333,"ha":333,"o":"m 213 421 q 280 421 300 418 q 320 415 320 408 q 320 405 315 389 q 309 374 305 371 q 302 368 292 368 l 213 366 q 211 162 211 136 q 211 69 225 49 q 239 28 276 23 q 298 20 298 8 q 298 -4 275 -4 q 261 -4 229 -2 q 197 0 170 0 q 136 0 88 -3 q 57 -5 48 -5 q 30 -5 30 9 q 30 18 42 21 q 76 29 84 41 q 92 52 94 99 q 96 146 96 366 q 82 367 58 367 q 21 367 21 378 q 21 384 26 398 q 31 413 39 416 q 47 418 96 421 q 96 547 155 607 q 213 667 317 667 q 385 667 416 644 q 447 620 447 592 q 447 574 433 561 q 419 548 396 548 q 357 548 326 601 q 311 626 301 632 q 292 637 279 637 q 245 637 228 600 q 211 563 213 421 z"},"Q":{"x_min":0,"x_max":771,"ha":771,"o":"m 424 2 q 380 -8 348 -8 q 273 -8 202 30 q 130 68 86 143 q 42 218 42 312 q 42 453 145 553 q 248 653 390 653 q 548 653 639 560 q 729 466 729 334 q 729 279 712 228 q 695 176 661 132 q 627 87 577 49 q 526 11 462 -21 l 322 -87 q 346 -84 357 -84 q 389 -84 422 -97 q 455 -109 518 -146 q 562 -172 573 -177 q 583 -181 603 -181 q 657 -181 694 -123 q 703 -110 713 -110 q 731 -110 731 -129 q 731 -145 674 -205 q 617 -266 532 -266 q 451 -266 362 -211 q 297 -170 271 -157 q 245 -144 226 -144 q 200 -144 188 -158 q 176 -173 175 -208 q 173 -242 162 -255 q 151 -267 126 -267 q 106 -267 92 -255 q 78 -242 78 -225 q 78 -149 268 -68 q 390 -16 424 2 z m 563 321 q 563 469 513 544 q 463 619 386 619 q 309 619 259 544 q 208 469 208 321 q 208 180 257 102 q 305 23 386 23 q 458 23 510 94 q 563 165 563 321 z"},"w":{"x_min":0,"x_max":719,"ha":719,"o":"m 544 143 q 562 183 592 270 q 622 357 622 365 q 622 385 591 389 q 568 393 568 405 q 568 419 586 419 q 594 419 604 418 q 625 416 640 416 q 655 416 679 417 q 696 419 698 419 q 714 419 714 404 q 714 395 698 390 q 680 385 666 370 q 653 355 637 306 l 537 36 q 522 -11 508 -11 q 498 -11 487 13 l 385 236 l 374 262 l 305 94 q 266 3 261 -4 q 255 -10 250 -10 q 240 -10 229 15 q 211 56 185 109 l 78 329 q 58 369 48 379 q 39 388 23 391 q 5 395 5 406 q 5 419 25 419 q 37 419 69 417 q 93 415 113 415 q 139 415 188 418 q 203 419 211 419 q 233 419 233 405 q 233 393 211 391 q 186 388 186 369 q 186 352 290 135 q 348 270 348 303 q 348 327 334 355 q 320 383 295 390 q 279 395 279 406 q 279 419 297 419 q 303 419 317 418 q 357 416 405 416 q 425 416 459 418 q 473 419 481 419 q 498 419 498 406 q 498 394 480 391 q 451 387 451 368 q 451 352 461 329 q 503 235 544 143 z"},"-":{"x_min":0,"x_max":365,"ha":365,"o":"m 20 247 q 20 262 23 264 q 25 267 43 267 l 321 267 q 339 267 342 264 q 345 262 345 247 l 345 192 q 345 177 342 174 q 339 172 321 172 l 43 172 q 25 172 23 174 q 20 177 20 192 z"},"E":{"x_min":0,"x_max":656,"ha":656,"o":"m 562 640 q 578 563 593 487 q 593 473 579 473 q 571 473 562 487 q 511 560 469 583 q 428 607 349 607 q 305 607 264 600 q 255 513 255 410 q 255 393 256 351 l 293 351 q 328 351 353 360 q 378 370 396 401 q 414 432 416 440 q 420 456 431 456 q 445 456 445 444 q 445 441 444 437 q 438 406 438 255 q 438 234 441 217 q 442 212 442 209 q 442 195 427 195 q 416 195 410 221 q 400 267 366 290 q 331 314 256 315 q 254 233 254 207 q 254 96 257 75 q 261 54 282 41 q 304 28 355 28 q 541 28 600 146 q 608 163 618 163 q 632 163 632 151 q 632 143 629 131 l 597 -9 l 420 -9 q 346 -8 281 -5 q 216 -2 180 -2 q 139 -2 56 -7 q 46 -8 41 -8 q 18 -8 18 7 q 18 21 37 21 q 84 21 100 46 q 117 72 117 151 l 120 402 q 120 531 116 561 q 113 590 100 601 q 86 611 48 617 q 33 619 33 630 q 33 645 51 645 l 168 641 z"},"s":{"x_min":0,"x_max":417,"ha":417,"o":"m 375 136 q 375 101 356 68 q 338 35 301 13 q 264 -9 215 -9 q 153 -9 111 17 q 92 27 87 27 q 81 27 77 19 q 69 0 59 0 q 52 0 50 4 q 47 9 45 48 q 43 87 43 140 q 43 161 55 161 q 67 161 80 130 q 127 21 208 21 q 236 21 256 35 q 276 50 276 78 q 276 101 258 118 q 239 135 188 160 q 109 199 81 228 q 51 256 51 304 q 51 359 94 394 q 136 428 198 428 q 248 428 298 399 q 305 395 310 395 q 316 395 319 406 q 324 419 333 419 q 340 419 342 415 q 345 411 349 369 q 354 328 354 301 q 354 282 342 282 q 331 282 318 309 q 277 400 199 400 q 170 400 153 386 q 135 372 135 355 q 135 335 158 318 q 180 300 245 271 q 301 245 323 231 q 344 217 359 191 q 375 165 375 136 z"},">":{"x_min":0,"x_max":667,"ha":667,"o":"m 598 235 l 68 13 l 68 82 l 512 265 l 68 447 l 68 517 l 599 293 z"},"l":{"x_min":0,"x_max":302,"ha":302,"o":"m 205 667 l 206 258 q 207 62 216 43 q 226 25 255 24 q 290 22 290 10 q 290 -5 269 -5 q 263 -5 251 -4 q 204 0 160 0 q 87 0 53 -3 q 43 -4 35 -4 q 13 -4 13 9 q 13 21 38 23 q 65 24 77 33 q 90 41 93 56 q 95 71 95 125 l 93 317 l 95 470 q 95 564 86 585 q 77 605 32 612 q 5 616 5 628 q 5 635 11 638 q 18 641 42 643 q 142 651 205 667 z"},"8":{"x_min":0,"x_max":531,"ha":531,"o":"m 354 304 q 408 280 436 244 q 463 208 463 160 q 463 89 402 38 q 341 -12 252 -12 q 169 -12 115 28 q 62 67 62 118 q 62 153 89 190 q 117 227 175 252 q 126 276 102 309 q 78 341 78 384 q 78 456 134 500 q 190 543 272 543 q 351 543 398 510 q 445 476 445 424 q 445 392 425 365 q 404 338 354 304 z m 317 321 q 341 337 357 364 q 374 390 374 419 q 374 452 347 482 q 320 513 269 513 q 222 513 194 486 q 166 459 166 428 q 166 407 183 384 q 201 361 276 335 q 308 324 317 321 z m 209 236 q 177 211 161 182 q 145 153 145 120 q 145 76 176 48 q 208 20 257 20 q 312 20 341 50 q 370 80 370 119 q 370 146 347 171 q 325 195 209 236 z"},"\\":{"x_min":0,"x_max":531,"ha":531,"o":"m 123 696 l 475 -18 l 408 -18 l 57 696 z"},"e":{"x_min":0,"x_max":479,"ha":479,"o":"m 171 223 q 170 208 170 202 q 170 133 204 85 q 238 37 296 37 q 355 37 412 88 q 424 98 429 98 q 441 98 441 84 q 441 74 412 46 q 383 18 340 4 q 298 -10 252 -10 q 153 -10 96 51 q 40 111 40 194 q 40 293 105 360 q 169 427 266 427 q 357 427 405 366 q 452 305 452 250 q 452 232 443 229 q 434 226 383 226 z m 174 258 q 246 257 257 257 q 312 257 325 265 q 337 273 337 297 q 337 337 314 368 q 292 398 260 398 q 185 398 174 258 z"},"b":{"x_min":0,"x_max":552,"ha":552,"o":"m 198 394 q 225 411 253 419 q 282 427 313 427 q 396 427 454 365 q 511 304 511 213 q 511 151 483 101 q 455 51 405 20 q 356 -12 292 -12 q 248 -12 215 0 q 182 12 136 42 q 130 45 126 45 q 116 45 111 26 q 102 -6 91 -6 q 82 -6 80 1 q 78 8 78 66 l 82 420 q 82 603 78 620 q 74 637 41 640 q 20 642 20 654 q 20 667 39 667 q 49 667 85 665 q 112 664 132 664 l 181 665 q 199 665 199 651 l 199 628 q 199 428 198 394 z m 283 390 q 252 390 228 369 q 204 348 197 269 q 191 190 191 146 q 191 77 217 49 q 242 21 277 21 q 322 21 350 72 q 377 123 377 202 q 377 281 353 336 q 328 390 283 390 z"},"%":{"x_min":0,"x_max":823,"ha":823,"o":"m 643 655 l 238 -18 l 181 -18 l 584 655 z m 39 485 q 39 550 83 603 q 128 655 209 655 q 288 655 333 603 q 379 552 379 485 q 379 416 332 366 q 284 316 209 316 q 128 316 83 368 q 39 420 39 485 z m 137 485 q 137 413 158 378 q 179 343 209 343 q 243 343 262 381 q 281 419 281 485 q 281 552 262 590 q 243 628 209 628 q 175 628 156 590 q 137 552 137 485 z m 444 153 q 444 217 489 270 q 534 322 614 322 q 693 322 739 271 q 785 219 785 153 q 785 83 737 33 q 689 -17 614 -17 q 540 -17 492 33 q 444 82 444 153 z m 542 152 q 542 80 563 45 q 584 10 614 10 q 648 10 667 48 q 686 86 686 152 q 686 219 667 257 q 648 295 614 295 q 581 295 562 257 q 542 219 542 152 z"},"m":{"x_min":0,"x_max":823,"ha":823,"o":"m 205 353 q 240 391 276 410 q 312 429 349 429 q 375 429 404 418 q 434 407 468 368 q 503 398 541 414 q 578 429 617 429 q 684 429 715 393 q 746 356 746 285 l 743 120 q 743 50 750 39 q 757 29 787 24 q 804 21 804 11 q 804 -4 784 -4 q 781 -4 774 -3 q 733 0 685 0 q 659 0 622 -2 q 599 -4 595 -4 q 571 -4 571 10 q 571 22 587 24 q 615 28 621 34 q 627 40 631 79 q 634 118 634 211 q 634 297 630 329 q 625 360 610 377 q 594 394 571 394 q 550 394 528 378 q 506 362 483 330 q 468 254 468 113 q 468 53 477 40 q 486 27 517 24 q 536 22 536 11 q 536 -4 512 -4 q 507 -4 475 -2 q 430 0 412 0 q 380 0 336 -3 q 325 -4 319 -4 q 298 -4 298 10 q 298 23 319 24 q 347 26 354 55 q 361 84 361 259 q 361 331 349 358 q 336 385 307 385 q 257 385 229 332 q 200 279 200 128 q 200 58 209 42 q 218 26 243 24 q 261 23 261 12 q 261 -4 241 -4 q 237 -4 228 -2 q 202 0 141 0 q 86 0 56 -3 q 44 -4 39 -4 q 22 -4 22 10 q 22 23 41 24 q 70 26 77 35 q 83 43 87 84 q 90 124 90 235 q 90 322 88 344 q 86 366 72 378 q 58 390 34 390 q 14 391 14 403 q 14 416 34 417 q 60 418 110 424 q 161 429 198 429 q 204 415 204 382 q 204 374 205 353 z"},"#":{"x_min":0,"x_max":667,"ha":667,"o":"m 43 475 l 202 475 l 244 672 l 304 672 l 262 475 l 467 475 l 509 672 l 569 672 l 527 475 l 623 475 l 623 415 l 515 415 l 478 234 l 623 234 l 623 174 l 466 174 l 424 -22 l 364 -22 l 406 174 l 200 174 l 158 -22 l 98 -22 l 140 174 l 43 174 l 43 234 l 152 234 l 190 415 l 43 415 z m 250 415 l 212 234 l 418 234 l 455 415 z"},",":{"x_min":0,"x_max":271,"ha":271,"o":"m 219 36 q 219 -3 190 -49 q 161 -94 116 -123 q 71 -151 55 -151 q 44 -151 44 -138 q 44 -131 55 -125 q 98 -95 116 -63 q 135 -32 135 -15 q 135 -1 113 4 q 54 19 54 63 q 54 91 77 109 q 100 126 127 126 q 169 126 194 99 q 219 71 219 36 z"},"n":{"x_min":0,"x_max":542,"ha":542,"o":"m 199 334 q 232 381 271 404 q 310 428 354 428 q 391 428 422 409 q 453 390 464 363 q 475 337 475 289 l 470 94 q 470 54 478 41 q 485 27 508 23 q 528 20 528 8 q 528 -5 509 -5 q 493 -5 438 -1 q 419 0 407 0 q 396 0 343 -4 l 319 -4 q 299 -4 299 9 q 299 20 317 23 q 333 26 343 34 q 353 42 356 111 q 359 180 359 248 q 359 323 347 351 q 335 378 302 378 q 260 378 225 318 q 189 257 189 131 q 189 82 194 60 q 199 38 206 32 q 213 27 236 23 q 250 21 250 9 q 250 -5 230 -5 q 220 -5 208 -4 q 162 0 158 0 q 87 0 42 -4 q 35 -5 31 -5 q 13 -5 13 9 q 13 21 29 23 q 54 26 62 37 q 71 47 75 104 q 80 160 80 238 q 80 338 72 362 q 65 385 37 396 q 17 404 17 411 q 17 423 46 423 q 127 423 177 429 q 196 387 199 334 z"},"h":{"x_min":0,"x_max":552,"ha":552,"o":"m 206 666 q 204 617 204 582 l 205 452 q 205 368 206 349 q 235 388 270 408 q 306 428 348 428 q 382 428 413 412 q 444 396 461 359 q 478 322 478 230 l 476 77 q 476 27 516 23 q 531 21 531 10 q 531 -4 515 -4 q 510 -4 501 -3 q 467 0 400 0 q 389 0 360 -2 q 339 -4 324 -4 q 304 -4 304 9 q 304 20 327 23 q 349 27 355 51 q 362 76 362 199 q 362 312 350 347 q 339 381 304 381 q 274 381 246 352 q 218 322 209 270 q 200 217 200 140 q 200 100 204 71 q 208 41 215 34 q 222 26 239 24 q 258 22 258 8 q 258 -4 237 -4 q 221 -4 191 -1 q 167 1 148 1 q 109 1 76 -3 q 60 -5 33 -5 q 19 -5 19 9 q 19 20 39 23 q 63 26 73 44 q 83 62 86 172 q 89 283 89 511 q 89 581 79 602 q 68 623 42 631 q 18 639 18 649 q 18 662 39 662 q 114 662 206 666 z"},"z":{"x_min":0,"x_max":458,"ha":458,"o":"m 400 0 l 69 0 q 42 0 36 2 q 30 3 30 10 q 30 15 35 22 q 40 30 47 42 q 50 47 56 56 l 131 174 q 216 306 258 392 q 204 392 169 383 q 134 375 118 362 q 101 350 66 304 q 56 289 47 289 q 33 289 33 304 q 33 309 36 317 q 48 348 64 419 l 337 419 q 385 419 394 417 q 403 414 403 408 q 403 403 387 376 l 348 311 l 173 31 q 269 32 295 36 q 321 39 341 55 q 361 71 388 114 q 405 140 414 140 q 428 140 428 125 q 428 118 419 84 q 408 45 400 0 z"},"B":{"x_min":0,"x_max":635,"ha":635,"o":"m 388 348 q 489 327 539 282 q 589 238 589 171 q 589 115 552 70 q 516 25 462 10 q 409 -6 307 -6 q 282 -6 229 -3 q 185 0 160 0 q 126 0 70 -5 q 47 -7 38 -7 q 19 -7 19 7 q 19 18 34 20 q 65 24 79 31 q 93 37 101 53 q 110 68 110 104 l 114 332 q 114 438 111 502 q 109 565 103 584 q 97 603 86 610 q 75 617 53 619 q 33 620 28 623 q 22 626 22 634 q 22 645 33 647 q 45 649 98 649 q 196 649 281 656 q 331 660 361 660 q 451 660 505 620 q 559 581 559 514 q 559 398 388 348 z m 253 355 q 421 355 421 500 q 421 564 392 596 q 362 627 322 627 q 294 627 253 614 q 250 564 250 511 q 250 465 253 355 z m 253 318 q 250 215 250 146 q 250 55 257 42 q 264 29 303 29 q 374 29 408 66 q 443 104 443 170 q 443 236 407 278 q 371 320 297 320 q 281 320 253 318 z"},"K":{"x_min":0,"x_max":698,"ha":698,"o":"m 250 337 q 303 381 373 461 q 443 542 454 558 q 465 574 465 583 q 465 608 419 618 q 400 622 400 634 q 400 648 418 648 q 425 648 435 647 q 473 642 543 642 q 561 642 600 645 q 637 647 650 647 q 671 647 671 633 q 671 620 651 618 q 623 615 595 602 q 566 590 527 558 q 487 526 445 480 l 349 374 l 381 375 q 438 375 475 351 q 513 327 529 293 q 544 259 565 173 q 581 109 591 83 q 601 58 623 40 q 645 21 670 20 q 692 18 692 7 q 692 -7 671 -7 q 666 -7 654 -6 q 612 -1 566 -1 q 518 -1 470 -7 q 454 19 445 48 q 437 77 419 189 q 406 271 383 300 q 359 329 331 329 q 296 329 250 284 l 249 158 q 249 71 258 49 q 268 28 312 22 q 334 20 334 10 q 334 -7 314 -7 q 304 -7 285 -5 q 236 0 168 0 q 124 0 67 -6 q 48 -8 39 -8 q 22 -8 22 8 q 22 16 28 19 q 33 21 53 23 q 76 26 87 36 q 97 45 102 68 q 106 91 109 178 q 112 265 112 370 q 112 477 109 521 q 106 564 98 585 q 90 606 80 612 q 70 617 39 620 q 23 621 23 634 q 23 649 48 649 q 65 649 101 646 q 144 642 172 642 q 189 642 269 646 q 292 647 305 647 q 324 647 324 634 q 324 621 305 619 q 272 616 262 603 q 252 590 251 564 q 250 537 250 337 z"},"R":{"x_min":0,"x_max":698,"ha":698,"o":"m 383 328 q 449 318 492 288 q 535 257 556 167 q 576 82 599 54 q 622 27 664 25 q 687 23 687 10 q 687 -4 649 -4 l 461 0 q 432 30 421 105 q 408 201 393 241 q 378 280 349 297 q 320 314 281 314 q 270 314 250 313 q 250 141 252 101 q 253 62 268 44 q 282 27 323 25 q 345 23 345 10 q 345 -3 326 -3 l 176 1 q 146 1 99 -1 q 55 -4 43 -4 q 23 -4 23 10 q 23 24 41 24 q 68 24 92 38 q 115 51 115 153 l 114 244 l 115 419 q 115 555 103 585 q 91 615 39 616 q 18 617 18 630 q 18 645 45 645 q 183 645 279 650 q 321 653 355 653 q 466 653 529 609 q 592 565 592 494 q 592 446 562 408 q 533 370 488 351 q 443 333 383 328 z m 250 348 q 263 348 270 348 q 312 348 355 364 q 398 379 416 414 q 434 449 434 489 q 434 550 398 584 q 362 618 305 618 q 281 618 250 609 z"},"T":{"x_min":0,"x_max":750,"ha":750,"o":"m 39 649 q 292 643 414 643 q 506 643 617 648 q 657 650 682 650 q 692 650 715 649 q 718 629 724 567 l 731 490 q 731 471 715 471 q 703 471 691 494 q 673 534 644 562 q 615 590 576 600 q 538 609 450 609 q 442 534 442 422 q 442 307 446 200 q 451 94 457 72 q 463 50 479 40 q 494 29 550 25 q 569 24 569 12 q 569 -2 552 -2 l 539 -1 l 438 1 q 319 1 294 0 l 232 -2 q 225 -2 202 -1 q 191 1 191 11 q 191 25 209 25 q 253 25 275 43 q 297 61 302 100 q 307 140 307 271 q 307 479 294 609 q 214 609 178 602 q 142 596 109 566 q 76 537 55 490 q 46 471 36 471 q 19 471 19 486 q 19 490 25 550 q 31 610 39 649 z"},"P":{"x_min":0,"x_max":646,"ha":646,"o":"m 250 301 l 249 116 q 249 57 266 40 q 282 22 316 21 q 338 21 344 18 q 350 15 350 6 q 350 -7 322 -7 q 309 -7 263 -4 q 200 0 175 0 q 148 0 100 -4 q 61 -7 42 -7 q 27 -7 27 7 q 27 18 54 21 q 81 25 92 35 q 103 45 108 71 q 113 96 114 205 q 114 314 114 397 l 114 551 q 114 582 99 601 q 83 620 45 620 q 28 620 28 633 q 28 649 59 649 l 71 649 q 99 647 135 647 l 334 650 q 485 650 545 605 q 605 560 605 479 q 605 397 541 348 q 477 299 331 299 q 297 299 250 301 z m 250 336 q 277 333 292 333 q 370 333 409 380 q 447 427 447 492 q 447 554 412 584 q 376 615 325 615 q 298 615 250 607 z"},"|":{"x_min":0,"x_max":531,"ha":531,"o":"m 233 667 l 298 667 l 298 -265 l 233 -265 z"},"t":{"x_min":0,"x_max":385,"ha":385,"o":"m 220 421 q 250 422 312 422 q 339 422 357 417 q 350 381 344 378 q 339 376 220 369 l 215 154 q 215 108 219 86 q 224 65 241 50 q 257 36 284 36 q 306 36 348 60 q 354 63 358 63 q 368 63 368 53 q 368 39 328 15 q 289 -10 235 -10 q 172 -10 136 21 q 101 52 101 151 q 101 260 104 369 q 56 369 36 372 q 16 374 16 386 q 16 396 39 401 q 84 412 120 438 q 156 465 182 524 q 192 548 196 553 q 199 558 206 558 q 220 558 220 535 z"},"M":{"x_min":0,"x_max":938,"ha":938,"o":"m 254 642 q 267 612 301 546 q 335 480 369 413 q 402 345 444 271 q 478 211 482 201 q 605 475 668 642 q 785 642 884 648 q 894 648 898 648 q 918 648 918 633 q 918 619 902 619 q 847 619 829 581 q 812 543 812 397 l 812 158 q 812 84 831 55 q 850 26 894 24 q 915 24 915 10 q 915 3 906 -2 l 769 -1 q 706 -1 596 -5 q 587 1 587 8 q 587 20 612 23 q 638 28 650 36 q 661 44 667 67 q 673 89 673 133 l 675 351 q 675 519 675 544 q 542 235 511 150 l 461 18 q 453 -3 445 -3 q 436 -3 424 22 q 388 98 169 519 q 167 398 167 192 q 167 84 179 55 q 191 27 248 22 q 266 20 266 8 q 266 -4 251 -4 q 246 -4 239 -4 q 181 0 155 0 q 86 0 50 -5 q 43 -6 40 -6 q 23 -6 23 8 q 23 15 27 18 q 31 21 49 24 q 96 33 111 58 q 125 83 125 140 l 127 418 q 127 514 123 544 q 118 575 99 592 q 80 608 37 617 q 21 620 21 633 q 21 646 38 646 q 42 646 49 646 q 99 642 254 642 z"},"g":{"x_min":0,"x_max":562,"ha":562,"o":"m 389 384 q 446 435 489 435 q 518 435 536 418 q 555 402 555 380 q 555 362 542 347 q 529 333 507 333 q 477 333 463 366 q 454 388 445 388 q 435 388 406 364 q 432 325 432 280 q 432 234 406 196 q 379 158 342 142 q 305 125 236 119 q 177 114 164 101 q 151 88 151 72 q 151 52 178 46 q 204 41 324 37 q 507 31 507 -83 q 507 -162 439 -213 q 370 -265 231 -265 q 127 -265 81 -234 q 34 -204 34 -163 q 34 -119 72 -89 q 110 -59 186 -42 q 128 -36 99 -17 q 70 2 70 36 q 70 71 97 95 q 124 119 177 131 q 122 148 94 181 q 65 214 65 263 q 65 333 122 382 q 179 430 262 430 q 301 430 333 418 q 365 407 389 384 z m 183 282 q 183 219 204 185 q 225 150 254 150 q 285 150 300 180 q 315 209 315 269 q 315 331 297 367 q 278 402 250 402 q 220 402 201 370 q 183 338 183 282 z m 130 -150 q 130 -183 163 -208 q 196 -233 256 -233 q 329 -233 377 -200 q 425 -167 425 -121 q 425 -84 387 -67 q 348 -50 288 -50 q 216 -50 173 -78 q 130 -107 130 -150 z"},"j":{"x_min":0,"x_max":302,"ha":302,"o":"m 206 597 q 206 568 185 547 q 165 526 136 526 q 107 526 86 547 q 65 568 65 597 q 65 626 86 646 q 106 667 136 667 q 165 667 185 646 q 206 626 206 597 z m 213 428 l 213 11 q 213 -78 199 -133 q 185 -189 139 -227 q 94 -265 32 -265 q -19 -265 -50 -240 q -81 -215 -81 -183 q -81 -158 -64 -138 q -47 -119 -21 -119 q 6 -119 21 -134 q 35 -150 35 -167 q 35 -179 22 -205 q 19 -213 19 -219 q 19 -226 25 -229 q 32 -233 45 -233 q 104 -233 104 -125 q 104 -117 102 -40 q 100 38 100 251 q 100 335 99 354 q 97 372 87 384 q 76 395 50 395 q 22 395 22 407 q 22 422 56 422 q 102 422 213 428 z"},"i":{"x_min":0,"x_max":302,"ha":302,"o":"m 202 594 q 202 565 181 545 q 161 524 132 524 q 103 524 82 545 q 62 565 62 594 q 62 624 82 644 q 103 665 132 665 q 161 665 181 644 q 202 624 202 594 z m 209 429 q 211 361 211 186 l 209 81 q 209 49 220 38 q 230 27 254 24 q 282 21 282 8 q 282 -5 260 -5 q 250 -5 225 -3 q 171 0 118 0 q 92 0 65 -2 q 49 -4 43 -4 q 22 -4 22 9 q 22 21 50 24 q 88 27 92 49 q 97 71 97 137 q 97 223 94 295 q 91 367 84 377 q 77 388 46 391 q 22 394 22 405 q 22 417 46 419 l 57 420 z"},"y":{"x_min":0,"x_max":500,"ha":500,"o":"m 297 108 l 337 219 q 370 312 370 346 q 370 386 324 393 q 303 396 303 407 q 303 420 323 420 q 331 420 352 418 q 373 416 402 416 q 422 416 450 418 q 473 421 477 421 q 500 421 500 407 q 500 398 485 395 q 447 384 429 353 q 411 321 353 156 q 277 -58 243 -130 q 209 -203 168 -233 q 127 -264 80 -264 q 38 -264 14 -243 q -9 -223 -9 -190 q -9 -169 8 -150 q 24 -131 52 -131 q 96 -131 107 -184 q 114 -210 127 -210 q 160 -210 198 -142 q 237 -75 237 -42 q 237 -25 206 48 q 176 121 124 237 q 73 354 59 371 q 44 388 26 393 q 7 396 7 406 q 7 420 32 420 q 38 420 71 417 q 92 415 124 415 q 177 415 217 418 l 238 420 q 258 420 258 407 q 258 395 234 390 q 219 387 210 377 q 201 366 201 356 q 201 346 227 275 q 253 204 297 108 z"},"@":{"x_min":0,"x_max":927,"ha":927,"o":"m 576 452 l 695 457 l 605 150 q 590 100 590 75 q 590 58 602 47 q 614 35 630 35 q 665 35 718 75 q 771 114 805 185 q 840 256 840 338 q 840 467 757 557 q 673 646 525 646 q 413 646 314 593 q 214 539 155 429 q 96 319 96 196 q 96 80 147 -7 q 198 -95 285 -142 q 373 -188 480 -188 q 612 -188 723 -115 q 834 -42 878 81 l 908 81 q 852 -62 738 -139 q 625 -216 478 -216 q 294 -216 169 -97 q 45 21 45 213 q 45 409 177 543 q 308 677 517 677 q 622 677 703 636 q 784 595 826 516 q 868 438 868 346 q 868 205 785 103 q 702 0 575 0 q 522 0 499 26 q 476 53 476 87 q 476 111 488 154 q 398 0 319 0 q 280 0 259 31 q 237 62 237 110 q 237 186 271 266 q 305 346 371 408 q 438 470 489 470 q 520 470 537 451 q 555 432 559 394 z m 537 369 q 537 400 527 418 q 517 435 502 435 q 460 435 412 320 q 363 206 363 136 q 363 117 371 103 q 379 89 392 89 q 411 89 447 132 q 483 174 510 244 q 537 315 537 369 z"},".":{"x_min":0,"x_max":240,"ha":240,"o":"m 188 59 q 188 30 168 10 q 148 -10 120 -10 q 92 -10 72 10 q 52 30 52 59 q 52 86 72 106 q 92 126 120 126 q 148 126 168 106 q 188 86 188 59 z"},"p":{"x_min":0,"x_max":542,"ha":542,"o":"m 190 366 q 217 396 247 410 q 276 425 310 425 q 378 425 440 365 q 501 305 501 210 q 501 122 440 57 q 379 -7 295 -7 q 266 -7 238 1 q 210 10 184 27 q 184 -168 194 -201 q 205 -233 252 -235 q 269 -236 269 -249 q 269 -262 246 -262 q 233 -262 206 -260 q 148 -256 106 -256 q 77 -256 36 -260 q 16 -261 11 -261 q -15 -261 -15 -249 q -15 -237 13 -234 q 57 -230 66 -180 q 75 -130 75 162 l 72 321 q 72 368 61 381 q 49 395 25 397 q 6 399 6 411 q 6 425 27 425 q 114 425 190 429 l 191 380 q 191 377 190 366 z m 364 193 q 364 282 338 331 q 312 380 270 380 q 227 380 205 328 q 183 276 183 171 q 183 88 204 57 q 225 26 271 26 q 317 26 341 68 q 364 110 364 193 z"},"X":{"x_min":0,"x_max":750,"ha":750,"o":"m 393 411 q 498 541 498 573 q 498 590 487 600 q 476 609 442 617 q 427 620 427 632 q 427 645 445 645 q 457 645 483 643 q 520 640 545 640 q 580 640 637 643 q 664 645 670 645 q 694 645 694 630 q 694 618 676 617 q 643 616 609 597 q 575 578 546 545 q 518 512 417 380 q 472 286 545 180 q 618 75 654 50 q 690 24 718 21 q 741 19 741 7 q 741 -7 717 -7 l 537 -1 q 502 -1 467 -3 q 437 -5 428 -5 q 407 -5 402 -6 q 395 -7 391 -7 q 377 -7 377 7 q 377 19 394 21 q 447 25 447 58 q 447 96 327 264 q 199 99 199 67 q 199 33 277 22 q 294 20 294 9 q 294 -5 276 -5 q 268 -5 232 -3 q 188 -1 145 -1 q 104 -1 81 -3 q 52 -6 42 -6 q 14 -6 14 9 q 14 21 29 22 q 73 28 99 43 q 125 59 163 105 q 201 152 305 296 q 182 498 133 553 q 84 609 31 617 q 12 620 12 632 q 12 646 30 646 q 39 646 55 644 q 86 641 190 641 q 234 641 295 644 q 333 646 338 646 q 365 646 365 632 q 365 618 344 617 q 332 616 312 609 q 292 602 292 587 q 292 573 312 538 q 333 502 393 411 z"},"*":{"x_min":0,"x_max":500,"ha":500,"o":"m 458 453 q 458 439 449 429 q 439 418 424 418 q 409 418 355 430 q 302 442 292 445 q 287 447 283 447 q 276 447 276 441 q 276 436 285 431 q 308 417 349 388 q 391 359 396 353 q 401 346 401 334 q 401 301 367 301 q 351 301 337 319 q 322 336 291 388 l 274 415 q 270 421 269 424 q 264 432 259 432 q 252 432 252 425 q 252 420 271 349 q 282 306 282 292 q 282 252 248 252 q 234 252 225 262 q 216 271 216 288 q 216 303 223 349 q 230 396 238 424 q 239 427 239 430 q 239 436 232 436 q 226 436 222 428 q 217 417 187 370 q 157 323 145 315 q 133 307 123 307 q 110 307 100 316 q 90 325 90 339 q 90 351 98 362 q 107 373 152 403 q 197 432 207 438 q 219 443 219 450 q 219 456 212 456 q 208 456 202 454 q 189 450 138 439 q 86 429 75 429 q 63 429 52 439 q 42 448 42 462 q 42 476 53 486 q 63 496 78 496 q 90 496 139 487 q 189 477 201 473 q 209 470 213 470 q 222 470 222 477 q 222 482 210 488 q 206 490 157 521 q 108 552 101 561 q 93 570 93 581 q 93 595 103 605 q 113 614 126 614 q 136 614 149 604 q 162 594 190 550 q 218 506 221 500 q 228 485 234 485 q 241 485 241 492 q 241 497 239 503 q 236 516 229 562 q 221 608 221 627 q 221 667 253 667 q 289 667 289 626 q 289 610 279 575 l 258 500 q 256 493 256 491 q 256 483 262 483 q 267 483 275 495 q 327 570 348 591 q 369 612 385 612 q 398 612 407 602 q 415 591 415 579 q 415 568 408 559 q 400 549 354 518 q 307 487 287 478 q 276 473 276 467 q 276 459 284 459 q 287 459 292 461 q 308 467 356 476 q 404 485 425 485 q 439 485 449 475 q 458 464 458 453 z"},"Y":{"x_min":0,"x_max":719,"ha":719,"o":"m 401 358 q 538 536 538 575 q 538 586 530 598 q 522 610 486 620 q 472 624 472 634 q 472 649 489 649 q 494 649 502 648 q 565 643 598 643 q 633 643 682 647 q 691 648 698 648 q 712 648 712 635 q 712 623 698 622 q 665 618 637 600 q 610 582 571 530 q 531 479 483 408 q 435 338 430 323 q 425 307 425 216 q 425 79 438 51 q 450 23 500 23 q 517 23 517 9 q 517 -5 498 -5 q 483 -5 417 -1 q 379 1 363 1 q 310 1 243 -5 q 230 -6 223 -6 q 204 -6 204 8 q 204 21 218 22 q 266 28 279 54 q 291 80 291 169 q 291 249 282 276 q 272 302 228 374 q 184 446 139 512 q 95 579 72 597 q 48 616 21 621 q 7 623 7 634 q 7 649 24 649 q 32 649 48 647 q 124 642 159 642 q 215 642 284 647 q 298 648 308 648 q 325 648 325 636 q 325 624 307 622 q 256 617 256 586 q 256 553 401 358 z"},"c":{"x_min":0,"x_max":469,"ha":469,"o":"m 42 207 q 42 298 105 364 q 168 429 263 429 q 326 429 373 399 q 421 369 421 328 q 421 304 406 290 q 392 276 370 276 q 328 276 310 336 q 300 370 289 384 q 276 398 253 398 q 213 398 193 358 q 173 318 173 238 q 173 146 206 91 q 239 36 292 36 q 362 36 391 120 q 400 146 413 146 q 427 146 427 131 q 427 89 384 39 q 340 -10 254 -10 q 160 -10 101 51 q 42 112 42 207 z"},"!":{"x_min":0,"x_max":281,"ha":281,"o":"m 125 177 q 63 547 63 576 q 63 612 87 634 q 111 656 141 656 q 173 656 195 632 q 217 609 217 577 q 217 547 156 177 z m 208 59 q 208 30 188 10 q 168 -10 141 -10 q 112 -10 92 10 q 72 30 72 59 q 72 86 92 106 q 112 126 141 126 q 168 126 188 106 q 208 86 208 59 z"},"/":{"x_min":0,"x_max":531,"ha":531,"o":"m 407 696 l 474 696 l 124 -18 l 57 -18 z"},"[":{"x_min":0,"x_max":510,"ha":510,"o":"m 156 -163 q 292 -116 366 -116 q 415 -116 452 -146 q 489 -177 489 -208 q 489 -226 479 -246 q 469 -267 457 -267 q 444 -267 444 -254 l 446 -245 l 447 -241 q 447 -229 433 -224 q 420 -219 369 -219 q 260 -219 148 -230 q 136 -231 128 -231 q 118 -231 113 -222 q 108 -212 105 -115 q 103 -19 103 139 q 103 410 104 510 q 106 611 112 622 q 118 633 128 633 q 136 633 148 632 q 260 621 370 621 q 418 621 433 626 q 447 631 447 643 l 446 647 q 444 654 444 657 q 444 668 457 668 q 469 668 479 648 q 489 628 489 610 q 489 579 452 548 q 415 518 366 518 q 292 518 156 565 q 155 548 155 545 l 159 314 l 158 53 l 155 -143 q 155 -146 156 -163 z"},"6":{"x_min":0,"x_max":531,"ha":531,"o":"m 182 308 q 209 324 239 333 q 269 341 301 341 q 376 341 431 295 q 485 250 485 171 q 485 91 425 40 q 364 -12 271 -12 q 164 -12 105 54 q 47 120 47 226 q 47 356 127 447 q 208 538 342 538 q 416 538 455 511 q 494 484 494 444 q 494 418 474 400 q 455 381 429 381 q 401 381 384 399 q 367 417 367 447 l 367 475 q 367 505 330 505 q 277 505 236 456 q 194 406 182 308 z m 354 163 q 354 233 333 269 q 311 304 268 304 q 223 304 198 268 q 172 231 172 170 q 172 101 198 61 q 225 21 266 21 q 307 21 330 59 q 354 98 354 163 z"},"r":{"x_min":0,"x_max":406,"ha":406,"o":"m 191 331 q 215 380 247 404 q 279 429 318 429 q 355 429 377 407 q 399 386 399 354 q 399 328 384 310 q 368 292 345 292 q 328 292 316 301 q 305 310 292 333 q 275 365 262 365 q 244 365 221 328 q 198 292 198 186 q 198 53 207 38 q 216 23 247 23 q 273 23 273 8 q 273 -5 247 -5 q 232 -5 205 -2 q 179 0 157 0 q 108 0 61 -3 q 41 -5 38 -5 q 17 -5 17 10 q 17 23 41 24 q 64 25 74 35 q 83 45 83 79 l 85 201 q 85 238 82 293 q 79 349 77 359 q 74 370 64 378 q 54 386 37 388 q 20 390 15 392 q 10 395 10 403 q 10 417 35 417 q 80 417 188 429 z"},"2":{"x_min":0,"x_max":531,"ha":531,"o":"m 416 0 l 80 0 q 55 0 49 2 q 43 3 43 10 q 43 18 59 28 q 104 59 186 133 q 268 207 302 275 q 337 344 337 415 q 337 455 321 478 q 305 501 278 501 q 245 501 215 477 q 185 452 167 407 q 149 362 149 316 q 149 291 158 278 q 166 266 182 266 q 203 266 221 288 q 239 310 246 326 q 253 341 263 341 q 276 341 276 329 q 276 310 239 262 q 203 214 147 214 q 103 214 76 243 q 50 272 50 309 q 50 393 140 465 q 230 537 315 537 q 383 537 426 496 q 468 455 468 394 q 468 362 454 329 q 440 295 419 270 q 398 244 333 195 q 268 146 208 106 l 304 106 q 378 106 400 115 q 421 123 443 153 q 458 175 467 175 q 480 175 480 162 q 480 155 476 146 q 446 83 416 0 z"},"{":{"x_min":0,"x_max":396,"ha":396,"o":"m 352 653 l 352 631 q 302 623 279 596 q 256 569 256 539 q 256 507 268 459 q 280 409 280 375 q 280 326 242 281 q 205 235 121 214 q 211 188 246 143 q 281 97 281 52 q 281 25 269 -24 q 257 -73 257 -107 q 257 -185 352 -204 l 352 -226 q 308 -226 280 -220 q 252 -213 220 -191 q 187 -169 168 -136 q 150 -103 150 -69 q 150 -38 165 21 q 176 64 176 97 q 176 184 81 199 l 81 229 q 132 236 154 267 q 176 299 176 335 q 176 367 166 408 q 150 466 150 495 q 150 552 202 602 q 253 651 352 653 z"},"9":{"x_min":0,"x_max":531,"ha":531,"o":"m 350 218 q 322 202 292 193 q 263 185 230 185 q 155 185 101 231 q 46 276 46 354 q 46 434 107 486 q 168 538 261 538 q 368 538 427 471 q 485 405 485 300 q 485 169 404 79 q 324 -12 189 -12 q 113 -12 75 15 q 38 42 38 82 q 38 107 57 126 q 77 145 103 145 q 126 145 145 129 q 165 113 165 78 l 164 51 q 164 20 202 20 q 257 20 297 71 q 336 122 350 218 z m 178 363 q 178 292 199 257 q 221 222 264 222 q 305 222 332 255 q 359 289 359 355 q 359 425 333 465 q 307 505 265 505 q 225 505 201 467 q 178 428 178 363 z"}," ":{"x_min":0,"x_max":266,"ha":266,"o":""},"I":{"x_min":0,"x_max":385,"ha":385,"o":"m 53 646 q 70 646 123 644 q 164 642 188 642 l 337 646 q 356 646 356 632 q 356 621 339 619 q 301 615 288 604 q 275 594 268 556 q 261 518 261 383 q 261 229 266 145 q 271 61 285 41 q 300 21 335 21 q 359 21 359 8 q 359 -9 333 -9 q 326 -9 312 -8 q 220 -2 186 -2 q 112 -2 77 -6 q 59 -8 51 -8 q 33 -8 33 6 q 33 17 48 19 q 89 24 104 42 q 118 60 121 128 q 124 196 124 339 q 124 490 119 541 q 113 592 101 604 q 88 615 53 618 q 35 620 35 633 q 35 646 53 646 z"},"H":{"x_min":0,"x_max":771,"ha":771,"o":"m 519 350 l 523 498 q 523 561 511 587 q 498 613 458 615 q 424 616 424 630 q 424 646 444 646 q 466 646 512 643 q 571 640 578 640 q 661 640 724 644 q 735 645 740 645 q 759 645 759 631 q 759 616 738 616 q 704 615 689 606 q 675 598 669 579 q 664 561 660 450 q 657 340 657 298 q 657 126 659 88 q 661 49 677 34 q 692 19 729 19 q 752 19 752 4 q 752 -8 734 -8 q 729 -8 709 -7 l 574 -2 q 562 -2 527 -4 q 460 -9 441 -9 q 423 -9 423 5 q 423 18 438 18 q 473 18 489 30 q 505 42 513 86 q 520 130 520 262 q 520 275 519 303 q 434 305 368 305 q 292 305 248 300 q 242 202 242 123 q 242 66 255 44 q 267 22 307 20 q 326 19 326 6 q 326 -8 306 -8 q 298 -8 284 -6 q 226 -1 163 -1 q 133 -1 83 -4 q 48 -6 38 -6 q 12 -6 12 8 q 12 20 32 22 q 70 26 83 39 q 97 51 103 85 q 110 119 111 278 q 112 438 112 453 q 112 525 107 557 q 102 590 90 601 q 78 612 52 615 q 33 618 28 621 q 23 624 23 632 q 23 647 40 647 q 61 647 110 643 q 138 641 173 641 l 311 646 q 335 646 335 630 q 335 616 315 616 q 283 616 271 608 q 259 600 253 577 q 247 554 247 488 l 248 350 q 310 343 382 343 q 453 343 519 350 z"},"4":{"x_min":0,"x_max":531,"ha":531,"o":"m 258 193 q 132 193 21 186 q 25 219 31 228 q 36 237 83 292 q 129 346 174 392 q 218 438 263 481 q 307 523 320 530 q 332 537 344 537 q 359 537 364 533 q 369 529 369 518 l 369 494 l 369 227 q 468 227 474 304 q 475 322 488 322 q 501 322 501 304 q 501 298 500 288 q 497 249 497 210 q 497 188 498 168 q 500 134 500 126 q 500 105 487 105 q 476 105 470 131 q 463 164 447 179 q 431 194 390 194 q 383 194 369 193 l 369 109 q 369 56 380 39 q 391 22 429 22 q 447 21 447 9 q 447 -5 429 -5 q 426 -5 396 -4 q 322 0 286 0 q 258 0 214 -4 q 206 -5 202 -5 q 178 -5 172 -2 q 167 0 167 8 q 167 21 198 24 q 223 27 234 35 q 245 43 249 64 q 253 85 258 193 z m 64 222 l 258 226 q 259 239 259 364 q 259 417 258 433 l 181 353 q 106 277 64 222 z"},"~":{"x_min":0,"x_max":667,"ha":667,"o":"m 572 339 l 597 339 q 595 270 560 230 q 524 190 471 190 q 444 190 415 199 q 386 208 288 250 q 215 280 184 280 q 111 280 95 191 l 70 191 q 73 269 110 304 q 146 340 192 340 q 241 340 378 281 q 451 250 483 250 q 520 250 544 273 q 568 297 572 339 z"},"D":{"x_min":0,"x_max":792,"ha":792,"o":"m 385 -11 q 363 -11 208 -8 l 101 -8 l 38 -7 q 16 -7 10 -5 q 4 -2 4 7 q 4 21 25 21 q 65 21 84 35 q 103 49 107 85 q 112 122 116 231 q 121 341 121 433 q 121 562 108 592 q 96 621 46 624 q 29 625 29 638 q 29 651 44 651 q 54 651 107 646 q 167 641 190 641 l 375 645 q 468 645 554 609 q 640 574 691 493 q 741 413 741 312 q 741 236 712 171 q 682 106 626 62 q 570 17 515 3 q 459 -11 385 -11 z m 352 25 q 454 25 514 97 q 573 168 573 302 q 573 437 509 525 q 445 612 327 612 q 286 612 278 608 q 270 603 268 598 q 266 593 262 489 l 256 323 q 255 262 255 172 q 255 104 261 78 q 267 53 287 39 q 307 25 352 25 z"},"^":{"x_min":0,"x_max":583,"ha":583,"o":"m 73 325 l 273 676 l 313 676 l 511 325 l 433 325 l 289 575 l 147 325 z"},"0":{"x_min":0,"x_max":531,"ha":531,"o":"m 506 267 q 506 204 480 140 q 455 75 396 32 q 338 -10 263 -10 q 159 -10 92 69 q 25 147 25 256 q 25 370 94 454 q 164 538 266 538 q 333 538 392 501 q 451 463 479 396 q 506 330 506 267 z m 375 270 q 375 382 347 444 q 320 507 270 507 q 220 507 189 441 q 158 375 158 252 q 158 139 188 81 q 219 22 267 22 q 321 22 348 84 q 375 146 375 270 z"},"F":{"x_min":0,"x_max":615,"ha":615,"o":"m 581 642 l 605 494 l 606 487 q 606 473 596 473 q 589 473 583 484 q 545 542 498 575 q 450 607 345 607 q 272 607 263 592 q 254 577 254 352 q 309 352 338 359 q 367 367 383 386 q 398 405 412 456 q 415 470 423 470 q 438 470 438 451 l 434 295 q 433 214 430 208 q 427 202 419 202 q 407 202 404 222 q 399 267 373 293 q 348 319 254 319 l 254 138 q 254 85 261 62 q 269 40 284 32 q 299 24 332 23 q 355 22 361 20 q 368 17 368 8 q 368 -8 346 -8 q 326 -8 270 -4 q 222 -1 198 -1 l 44 -7 q 21 -7 21 7 q 21 21 49 21 q 99 23 109 66 q 119 108 119 375 q 119 547 106 581 q 94 614 45 614 l 32 613 q 15 613 15 628 q 15 642 43 642 z"},"`":{"x_min":0,"x_max":333,"ha":333,"o":"m 77 665 q 99 665 120 643 q 142 621 185 556 q 229 492 229 486 q 229 481 222 475 q 215 469 209 469 q 198 469 140 516 l 64 575 q 35 598 35 624 q 35 640 48 653 q 61 665 77 665 z"},"k":{"x_min":0,"x_max":552,"ha":552,"o":"m 204 666 l 204 221 q 239 242 292 294 q 346 345 346 367 q 346 386 300 391 q 276 393 276 405 q 276 417 296 417 q 308 417 322 416 q 361 414 393 414 q 414 414 437 415 q 469 417 479 417 q 497 417 497 404 q 497 392 467 388 q 442 386 419 371 q 396 356 358 316 q 329 287 324 283 q 355 266 383 234 q 411 203 438 105 q 450 63 456 50 q 463 37 479 30 q 495 22 524 22 q 539 21 539 8 q 539 -4 522 -4 q 519 -4 513 -4 q 458 0 430 0 q 405 0 360 -6 q 336 18 326 76 q 313 147 293 171 q 273 194 236 208 q 221 196 204 185 q 205 55 214 41 q 223 27 250 25 q 272 22 272 8 q 272 -5 251 -5 q 245 -5 234 -4 q 182 1 162 1 q 130 1 77 -3 q 58 -5 51 -5 q 27 -5 27 9 q 27 21 46 24 q 85 29 88 52 q 92 76 92 201 l 88 539 q 88 587 78 601 q 67 615 41 619 q 20 623 20 634 q 20 646 42 647 q 122 653 204 666 z"},"u":{"x_min":0,"x_max":542,"ha":542,"o":"m 186 419 q 188 369 188 282 q 188 150 190 114 q 193 77 210 58 q 227 40 248 40 q 273 40 300 59 q 326 78 338 108 q 351 139 351 209 l 352 317 q 352 360 347 374 q 342 387 315 388 q 286 390 286 403 q 286 412 293 414 q 300 416 331 416 q 398 416 457 419 q 459 400 459 211 q 459 59 462 45 q 465 31 494 28 q 511 26 511 14 q 511 0 491 0 q 487 0 479 0 q 465 1 447 1 q 382 1 375 1 q 367 0 362 0 q 353 0 350 4 q 348 7 348 22 q 348 48 352 74 q 318 33 281 12 q 243 -8 202 -8 q 78 -8 78 131 l 78 282 q 78 360 72 374 q 66 387 42 391 q 21 394 21 403 q 21 417 40 417 q 171 417 186 419 z"},"]":{"x_min":0,"x_max":510,"ha":510,"o":"m 354 565 q 218 518 145 518 q 96 518 59 548 q 22 579 22 610 q 22 625 31 647 q 40 668 53 668 q 66 668 66 657 q 66 654 64 647 l 64 643 q 64 632 77 626 q 91 621 142 621 q 251 621 362 632 q 374 633 383 633 q 393 633 398 624 q 403 614 406 517 q 408 420 408 263 q 408 -8 406 -108 q 404 -209 398 -220 q 393 -231 383 -231 q 374 -231 362 -230 q 251 -219 141 -219 q 92 -219 78 -224 q 64 -229 64 -241 l 64 -245 l 66 -254 q 66 -267 54 -267 q 40 -267 31 -245 q 22 -223 22 -208 q 22 -177 59 -146 q 96 -116 144 -116 q 218 -116 354 -163 q 355 -146 355 -143 l 352 87 l 353 349 l 355 545 q 355 548 354 565 z"},"U":{"x_min":0,"x_max":760,"ha":760,"o":"m 41 650 l 198 645 q 220 645 249 647 q 295 650 321 650 q 346 650 346 637 q 346 624 327 623 q 292 621 274 597 q 257 574 252 502 q 247 430 247 344 q 247 205 260 157 q 273 110 317 82 q 360 53 432 53 q 505 53 542 84 q 579 115 593 182 q 607 248 607 428 q 607 535 590 575 q 574 616 534 620 q 505 623 505 637 q 505 651 528 651 q 540 651 566 648 q 593 646 623 646 q 650 646 684 648 q 709 650 719 650 q 744 650 744 636 q 744 625 726 623 q 702 621 682 600 q 662 580 656 533 q 651 487 651 294 q 651 167 625 110 q 600 53 537 22 q 474 -10 379 -10 q 307 -10 253 3 q 199 16 168 43 q 136 70 122 105 q 108 140 108 208 l 110 469 q 110 523 104 559 q 98 594 85 605 q 72 617 45 620 q 28 622 24 625 q 20 628 20 635 q 20 650 41 650 z"},"o":{"x_min":0,"x_max":542,"ha":542,"o":"m 501 221 q 501 131 434 61 q 367 -9 264 -9 q 169 -9 105 50 q 41 108 41 206 q 41 305 109 366 q 177 428 274 428 q 374 428 437 370 q 501 312 501 221 z m 366 188 q 366 268 340 332 q 313 397 263 397 q 219 397 195 352 q 171 307 171 225 q 171 136 198 79 q 226 22 273 22 q 319 22 343 68 q 366 113 366 188 z"},"N":{"x_min":0,"x_max":760,"ha":760,"o":"m 203 645 q 437 379 593 218 q 594 251 594 261 l 594 455 q 594 523 586 552 q 579 582 553 599 q 528 616 494 619 q 476 621 476 634 q 476 648 493 648 q 502 648 517 646 q 544 643 598 643 q 666 643 701 647 q 715 648 726 648 q 744 648 744 634 q 744 621 719 618 q 688 615 662 592 q 635 569 635 502 l 638 226 l 634 18 q 634 -9 618 -9 q 613 -9 607 -6 q 602 -3 540 61 q 479 126 358 262 q 237 398 188 457 q 188 444 188 211 q 188 140 194 99 q 200 58 232 40 q 264 21 290 21 q 306 21 306 9 q 306 -6 289 -6 q 277 -6 260 -4 q 231 0 186 0 q 113 0 80 -4 q 60 -7 51 -7 q 32 -7 32 9 q 32 21 62 23 q 118 28 132 62 q 146 95 146 153 q 146 405 143 461 q 140 518 108 563 q 75 608 29 617 q 10 621 10 632 q 10 648 30 648 q 35 648 44 647 q 56 646 85 646 q 148 646 203 645 z"},"+":{"x_min":0,"x_max":667,"ha":667,"o":"m 68 296 l 301 296 l 301 529 l 366 529 l 366 296 l 599 296 l 599 232 l 366 232 l 366 -1 l 301 -1 l 301 232 l 68 232 z"},"G":{"x_min":0,"x_max":812,"ha":812,"o":"m 694 595 l 708 454 q 709 444 709 438 q 709 423 696 423 q 684 423 675 440 q 637 519 575 568 q 513 617 432 617 q 327 617 268 530 q 209 442 209 323 q 209 190 275 106 q 340 21 428 21 q 466 21 505 38 q 543 56 554 75 q 565 95 565 132 q 565 214 559 235 q 552 255 537 263 q 522 271 476 276 q 458 278 458 290 q 458 304 475 304 l 548 304 l 773 310 q 789 310 789 297 q 789 290 783 287 q 777 284 742 277 q 715 271 708 259 q 701 248 697 112 q 696 82 695 78 q 694 74 637 45 q 580 15 520 1 q 459 -14 400 -14 q 299 -14 220 26 q 141 65 93 137 q 44 209 44 309 q 44 450 141 552 q 238 654 407 654 q 466 654 514 640 q 562 625 624 599 q 636 593 645 593 q 654 593 660 607 q 667 626 678 626 q 691 626 694 595 z"},"q":{"x_min":0,"x_max":552,"ha":552,"o":"m 423 372 q 434 388 439 404 q 445 419 458 419 q 468 419 470 411 q 473 402 473 365 l 472 241 q 472 -170 480 -200 q 487 -230 529 -232 q 552 -233 552 -246 q 552 -252 547 -257 q 542 -261 516 -261 q 510 -261 492 -259 q 467 -257 412 -257 q 387 -257 354 -259 q 319 -261 304 -261 q 281 -261 281 -247 q 281 -234 305 -233 q 338 -230 349 -215 q 360 -199 360 -162 l 359 -74 l 359 4 l 359 17 q 333 4 307 -2 q 281 -8 255 -8 q 159 -8 102 54 q 44 117 44 201 q 44 292 108 360 q 171 428 273 428 q 361 428 423 372 z m 182 213 q 182 118 210 72 q 238 25 283 25 q 329 25 344 60 q 360 95 360 176 q 360 318 341 359 q 322 401 277 401 q 229 401 206 354 q 182 307 182 213 z"},"d":{"x_min":0,"x_max":552,"ha":552,"o":"m 351 382 q 351 523 350 571 q 348 618 342 626 q 335 634 307 639 q 288 642 288 652 q 288 661 295 663 q 301 665 337 665 l 466 665 l 465 318 l 462 103 q 462 53 471 40 q 479 27 510 23 q 528 21 528 9 q 528 -3 509 -3 l 351 -3 l 351 63 q 330 26 300 7 q 270 -12 229 -12 q 155 -12 98 46 q 42 104 42 196 q 42 297 106 362 q 171 426 250 426 q 280 426 305 415 q 330 404 351 382 z m 174 210 q 174 117 198 74 q 223 31 261 31 q 298 31 324 72 q 350 113 350 221 q 350 309 328 353 q 306 397 262 397 q 218 397 196 350 q 174 304 174 210 z"},"1":{"x_min":0,"x_max":531,"ha":531,"o":"m 339 511 l 339 143 q 339 66 351 45 q 363 23 395 22 q 417 22 423 19 q 429 16 429 7 q 429 -6 413 -6 q 410 -6 405 -5 q 329 0 293 0 q 255 0 184 -4 q 159 -5 150 -5 q 131 -5 131 8 q 131 17 137 19 q 143 22 167 24 q 197 26 210 38 q 223 49 226 62 q 229 76 230 125 l 230 344 q 230 400 224 422 q 218 443 204 452 q 189 461 158 465 q 133 468 128 470 q 123 473 123 480 q 123 489 129 492 q 135 494 155 496 q 244 502 312 537 q 321 541 326 541 q 339 541 339 511 z"},"5":{"x_min":0,"x_max":531,"ha":531,"o":"m 183 427 l 163 302 q 195 329 230 343 q 266 356 303 356 q 374 356 418 312 q 461 267 461 202 q 461 120 390 56 q 318 -8 202 -8 q 125 -8 85 22 q 44 52 44 94 q 44 123 64 140 q 83 157 110 157 q 137 157 153 141 q 168 125 168 105 q 168 94 163 76 q 158 61 158 53 q 158 42 169 32 q 181 22 206 22 q 271 22 300 84 q 330 146 330 220 q 330 268 308 291 q 287 314 259 314 q 225 314 194 288 q 163 261 153 226 q 147 202 136 202 q 122 202 122 218 q 122 229 144 369 q 166 509 173 534 q 223 521 291 521 q 377 521 415 574 q 427 591 435 591 q 450 591 450 578 q 450 532 391 479 q 332 426 226 426 q 210 426 183 427 z"}}}
